<?xml version="1.0" encoding="UTF-8"?>
<svg width="562px" height="16px" viewBox="0 0 562 16" version="1.1" xmlns="http://www.w3.org/2000/svg" xmlns:xlink="http://www.w3.org/1999/xlink">
    <!-- Generator: Sketch 43.1 (39012) - http://www.bohemiancoding.com/sketch -->
    <title>download</title>
    <desc>Created with Sketch.</desc>
    <defs></defs>
    <g id="Page-1" stroke="none" stroke-width="1" fill="none" fill-rule="evenodd">
        <g id="download" fill-rule="nonzero" fill="#FFFFFF">
            <path d="M550.110532,11.536169 L552.668274,11.536169 C552.749481,12.214417 553.098509,12.759602 553.711055,13.171722 C554.322525,13.583843 555.082964,13.790172 555.99022,13.790172 C556.877579,13.790172 557.599834,13.591385 558.16129,13.195964 C558.72651,12.80216 559.007238,12.295225 559.007238,11.682701 C559.007238,11.148291 558.80449,10.717854 558.392541,10.386542 C557.984356,10.053613 557.316418,9.779944 556.388187,9.560146 L554.476334,9.109776 C553.122709,8.795164 552.11381,8.309239 551.4534,7.644998 C550.797831,6.983989 550.470315,6.124192 550.470315,5.064531 C550.470315,3.760291 550.979605,2.702245 552.002487,1.889856 C553.023755,1.075851 554.344037,0.671273 555.959566,0.671273 C557.581549,0.671273 558.888386,1.072619 559.882227,1.872617 C560.872841,2.677464 561.386971,3.729584 561.421928,5.033824 L558.905058,5.033824 C558.842674,4.34534 558.545274,3.80285 558.01501,3.410662 C557.484209,3.019551 556.790456,2.819686 555.938592,2.819686 C555.107702,2.819686 554.435461,3.008777 553.921332,3.386419 C553.40505,3.760291 553.14691,4.258068 553.14691,4.868976 C553.14691,5.362443 553.345355,5.760557 553.746011,6.067627 C554.143978,6.376313 554.796858,6.637592 555.70519,6.859006 L557.400313,7.246884 C558.894302,7.588971 559.976879,8.085132 560.653422,8.742908 C561.327276,9.396914 561.665548,10.273411 561.665548,11.374554 C561.665548,12.77307 561.142813,13.884987 560.095731,14.706534 C559.04811,15.530775 557.635329,15.941818 555.847168,15.941818 C554.143978,15.941818 552.773682,15.54963 551.743271,14.759867 C550.711246,13.969027 550.165387,12.895359 550.110532,11.536169" id="Fill-1"></path>
            <polygon id="Fill-2" points="496.228532 15.696162 493.591196 15.696162 493.591196 3.149383 489.112458 3.149383 489.112458 0.915313 500.706195 0.915313 500.706195 3.149383 496.228532 3.149383"></polygon>
            <path d="M434.180686,15.941818 C432.069312,15.941818 430.396776,15.259261 429.165231,13.892529 C427.936374,12.52903 427.321677,10.665599 427.321677,8.301697 C427.321677,5.953418 427.939601,4.093219 429.175449,2.726488 C430.413448,1.354908 432.082757,0.671273 434.180686,0.671273 C435.90001,0.671273 437.348286,1.159891 438.524977,2.141438 C439.704894,3.120292 440.377135,4.404599 440.542238,5.988435 L437.941472,5.988435 C437.775294,5.058066 437.34237,4.313017 436.650231,3.754365 C435.959705,3.193558 435.136344,2.914501 434.180686,2.914501 C432.912033,2.914501 431.904209,3.401503 431.149686,4.372815 C430.396776,5.348436 430.018708,6.655909 430.018708,8.301697 C430.018708,9.958798 430.393549,11.273813 431.14377,12.246202 C431.893991,13.214281 432.908806,13.700206 434.189829,13.700206 C435.166998,13.700206 435.983906,13.448085 436.650231,12.944382 C437.31333,12.444989 437.748942,11.748425 437.95169,10.861154 L440.542238,10.861154 C440.308835,12.444989 439.627452,13.689432 438.497549,14.591787 C437.361731,15.489833 435.924211,15.941818 434.180686,15.941818" id="Fill-3"></path>
            <polygon id="Fill-4" points="377.728575 13.462092 377.728575 15.696162 368.179526 15.696162 368.179526 0.915313 377.728575 0.915313 377.728575 3.149383 370.817937 3.149383 370.817937 7.144527 377.350507 7.144527 377.350507 9.242301 370.817937 9.242301 370.817937 13.462092"></polygon>
            <polygon id="Fill-5" points="313.294543 15.696162 310.657207 15.696162 310.657207 3.149383 306.178468 3.149383 306.178468 0.915313 317.771668 0.915313 317.771668 3.149383 313.294543 3.149383"></polygon>
            <polygon id="Fill-6" points="252.316367 15.696162 249.679031 15.696162 249.679031 0.915313 252.316367 0.915313"></polygon>
            <polygon id="Fill-7" points="196.242324 15.696162 193.61413 15.696162 193.61413 9.283783 186.435672 9.283783 186.435672 15.696162 183.796722 15.696162 183.796722 0.915313 186.435672 0.915313 186.435672 7.062103 193.61413 7.062103 193.61413 0.915313 196.242324 0.915313"></polygon>
            <path d="M129.289807,15.941818 C127.178433,15.941818 125.506435,15.259261 124.274352,13.892529 C123.046033,12.52903 122.431336,10.665599 122.431336,8.301697 C122.431336,5.953418 123.048722,4.093219 124.285108,2.726488 C125.52472,1.354908 127.192416,0.671273 129.289807,0.671273 C131.009669,0.671273 132.457945,1.159891 133.634636,2.141438 C134.814553,3.120292 135.486794,4.404599 135.651359,5.988435 L133.05113,5.988435 C132.883339,5.058066 132.451491,4.313017 131.760965,3.754365 C131.068826,3.193558 130.246003,2.914501 129.289807,2.914501 C128.021692,2.914501 127.013868,3.401503 126.260958,4.372815 C125.506435,5.348436 125.12998,6.655909 125.12998,8.301697 C125.12998,9.958798 125.503208,11.273813 126.253429,12.246202 C127.003112,13.214281 128.018465,13.700206 129.29895,13.700206 C130.276119,13.700206 131.093565,13.448085 131.760965,12.944382 C132.424064,12.444989 132.860214,11.748425 133.062962,10.861154 L135.651359,10.861154 C135.418494,12.444989 134.737111,13.689432 133.607208,14.591787 C132.473003,15.489833 131.03387,15.941818 129.289807,15.941818" id="Fill-8"></path>
            <path d="M64.966023,10.134421 L64.966023,15.696162 L62.327073,15.696162 L62.327073,0.915313 L68.257315,0.915313 C69.845417,0.915313 71.094172,1.327433 72.002504,2.14898 C72.90492,2.97376 73.359355,4.096452 73.359355,5.516517 C73.359355,6.504528 73.115735,7.379409 72.623117,8.130923 C72.135339,8.886746 71.450728,9.421156 70.577353,9.735769 L73.798194,15.696162 L70.784403,15.696162 L67.891078,10.134421 L64.966023,10.134421 Z M64.966023,3.0578 L64.966023,3.0578 L64.966023,8.106142 L68.013157,8.106142 C68.849962,8.106142 69.499616,7.886344 69.959967,7.4419 C70.421931,6.997457 70.652106,6.376313 70.652106,5.574698 C70.652106,4.798942 70.409561,4.183186 69.929312,3.732816 C69.450677,3.282446 68.790805,3.0578 67.950773,3.0578 L64.966023,3.0578 Z" id="Fill-9"></path>
            <path d="M11.0275547,15.696162 L9.7669684,11.875024 L4.3401011,11.875024 L3.0805904,15.696162 L0.3609721,15.696162 L5.5974607,0.915313 L8.5746817,0.915313 L13.8084814,15.696162 L11.0275547,15.696162 Z M7.016696,3.529719 L7.016696,3.529719 L4.9542605,9.836509 L9.1463555,9.836509 L7.0914492,3.529719 L7.016696,3.529719 Z" id="Fill-10"></path>
        </g>
    </g>
</svg>