<?xml version="1.0" encoding="UTF-8"?>
<svg width="21px" height="14px" viewBox="0 0 21 14" version="1.1" xmlns="http://www.w3.org/2000/svg" xmlns:xlink="http://www.w3.org/1999/xlink">
    <!-- Generator: Sketch 43.1 (39012) - http://www.bohemiancoding.com/sketch -->
    <title>34364</title>
    <desc>Created with Sketch.</desc>
    <defs></defs>
    <g id="Page-1" stroke="none" stroke-width="1" fill="none" fill-rule="evenodd">
        <g id="Desktop-HD" transform="translate(-114.000000, -764.000000)" fill-rule="nonzero" fill="#FFFFFF">
            <g id="Group-3" transform="translate(56.000000, 762.000000)">
                <g id="34364" transform="translate(58.000000, 2.000000)">
                    <path d="M18.9645061,1.97896164 L13.7026798,1.97896164 L13.7026798,0.667917251 L18.9649455,0.667917251 L18.9649455,1.97896164 L18.9645061,1.97896164 L18.9645061,1.97896164 Z M10.1997593,7.35512517 C10.5392761,7.88262831 10.7089368,8.52311536 10.7089368,9.27506813 C10.7089368,10.0526835 10.5176474,10.7502747 10.1284774,11.3664704 C9.88089477,11.7742312 9.57350369,12.1186681 9.20415593,12.3959611 C8.78818198,12.7166454 8.29570203,12.9365404 7.72954782,13.0540299 C7.16158715,13.1717154 6.54685382,13.2311703 5.8846643,13.2311703 L0,13.2311703 L0,0.124154612 L6.3104029,0.124154612 C7.90101501,0.150111038 9.02868523,0.612380294 9.69458531,1.52021854 C10.0941547,2.07700836 10.2921329,2.74511698 10.2921329,3.52170386 C10.2921329,4.32302281 10.0917623,4.96419551 9.68828711,5.45134375 C9.46384671,5.72447392 9.13228813,5.97292099 8.69336727,6.19717472 C9.35819323,6.44131205 9.86263488,6.825761 10.1997593,7.35512517 Z M3.0134676,5.29158929 L5.77842495,5.29158929 C6.34662974,5.29158929 6.80595871,5.18325795 7.15973186,4.9666932 C7.51326089,4.75047127 7.68965924,4.36612027 7.68965924,3.81427686 C7.68965924,3.20459469 7.45608889,2.79991932 6.98782526,2.60514817 C6.58532652,2.46983194 6.07033906,2.40014138 5.4454505,2.40014138 L3.0134676,2.40014138 L3.0134676,5.29158929 Z M7.95589233,9.08783904 C7.95589233,8.40699709 7.67847872,7.93630424 7.12477443,7.68374331 C6.81513748,7.54019938 6.37826719,7.46683575 5.81811824,7.46159549 L3.0134676,7.46159549 L3.0134676,10.9545468 L5.77471438,10.9545468 C6.34199153,10.9545468 6.78105887,10.8800568 7.09792165,10.7246611 C7.66934877,10.4389445 7.95589233,9.89518184 7.95589233,9.08783904 Z M20.9168008,6.95554313 C20.9803686,7.38436288 21.0091255,8.00653351 20.9974567,8.81975324 L14.1828075,8.81975324 C14.2204014,9.76329381 14.5451247,10.4231257 15.160981,10.8007183 C15.5323793,11.0375095 15.982676,11.153138 16.5099669,11.153138 C17.0659659,11.153138 17.5191431,11.0121407 17.8679851,10.7223103 C18.058054,10.5686776 18.225713,10.351819 18.3706692,10.0781991 L20.8684658,10.0781991 C20.8030426,10.6354787 20.5022915,11.2006921 19.9618183,11.7750638 C19.124451,12.6879953 17.950057,13.1457589 16.4418097,13.1457589 C15.1958408,13.1457589 14.0977574,12.7596938 13.1446303,11.9903552 C12.1946766,11.2183229 11.717576,9.96624368 11.717576,8.22936698 C11.717576,6.60062573 12.1459022,5.35398267 13.0054352,4.48625445 C13.8681418,3.61691007 14.9815068,3.18422135 16.353879,3.18422135 C17.1673229,3.18422135 17.9005991,3.33006708 18.5547816,3.62327674 C19.2069135,3.91678025 19.7458732,4.37870669 20.1703424,5.01356169 C20.5544836,5.57265331 20.8015291,6.21911524 20.9168008,6.95554313 Z M18.4582092,7.20012122 C18.412413,6.54768442 18.1952473,6.05387566 17.804222,5.71639314 C17.4164191,5.37798012 16.9319461,5.20808796 16.353879,5.20808796 C15.7247428,5.20808796 15.2389517,5.389685 14.8937714,5.74661034 C14.5462476,6.10280107 14.3300095,6.58705983 14.2413954,7.2001702 L18.4582092,7.2001702 L18.4582092,7.20012122 Z" id="Behance"></path>
                </g>
            </g>
        </g>
    </g>
</svg>