<?xml version="1.0" encoding="UTF-8"?>
<svg width="26px" height="26px" viewBox="0 0 26 26" version="1.1" xmlns="http://www.w3.org/2000/svg" xmlns:xlink="http://www.w3.org/1999/xlink">
    <!-- Generator: Sketch 43.1 (39012) - http://www.bohemiancoding.com/sketch -->
    <title>behance-logo</title>
    <desc>Created with Sketch.</desc>
    <defs></defs>
    <g id="Page-1" stroke="none" stroke-width="1" fill="none" fill-rule="evenodd">
        <g id="Desktop-HD" transform="translate(-313.000000, -5043.000000)" fill-rule="nonzero" fill="#D0D0D0">
            <g id="behance-logo" transform="translate(313.000000, 5043.000000)">
                <path d="M10.4363469,10.2750408 C10.4363469,9.05171429 9.60408163,9.05171429 9.60408163,9.05171429 L9.16340816,9.05171429 L6.18004082,9.05171429 L6.18004082,11.6766531 L9.39183673,11.6766531 C9.94685714,11.6763878 10.4363469,11.498898 10.4363469,10.2750408 Z" id="Shape"></path>
                <path d="M9.60434694,13.4897551 L6.18004082,13.4897551 L6.18004082,16.6336327 L9.44622449,16.6336327 C9.93757143,16.6195714 10.8443878,16.4656939 10.8443878,15.1054694 C10.8443878,13.4733061 9.60434694,13.4897551 9.60434694,13.4897551 Z" id="Shape"></path>
                <path d="M18.3705918,11.6763878 C16.5535102,11.6763878 16.3001429,13.4897551 16.3001429,13.4897551 L20.1643265,13.4897551 C20.1645918,13.4897551 20.1876735,11.6763878 18.3705918,11.6763878 Z" id="Shape"></path>
                <path d="M12.9668367,0 C5.80542857,0 0,5.80569388 0,12.9668367 C0,20.1279796 5.80542857,25.9336735 12.9668367,25.9336735 C20.1282449,25.9336735 25.9336735,20.1279796 25.9336735,12.9668367 C25.9336735,5.80569388 20.1282449,0 12.9668367,0 Z M15.7939388,7.65355102 L20.647449,7.65355102 L20.647449,9.10212245 L15.7939388,9.10212245 L15.7939388,7.65355102 Z M13.3409184,15.2513878 C13.3409184,18.8417755 9.60434694,18.7237143 9.60434694,18.7237143 L6.18004082,18.7237143 L6.0794898,18.7237143 L3.48293878,18.7237143 L3.48293878,6.96057143 L6.0794898,6.96057143 L6.18004082,6.96057143 L9.60408163,6.96057143 C11.4644082,6.96057143 12.9328776,7.98757143 12.9328776,10.0925102 C12.9328776,12.1977143 11.1378163,12.3311633 11.1378163,12.3311633 C13.5040816,12.3311633 13.3409184,15.2513878 13.3409184,15.2513878 Z M18.3936735,17.1066735 C20.3489796,17.1066735 20.2797347,15.8411633 20.2797347,15.8411633 L22.3499184,15.8411633 C22.3499184,19.1996735 18.3246939,18.9696531 18.3246939,18.9696531 C13.4942653,18.9696531 13.8049388,14.4727143 13.8049388,14.4727143 C13.8049388,14.4727143 13.8012245,9.9534898 18.3241633,9.9534898 C23.0856122,9.9534898 22.418898,15.0593061 22.418898,15.0593061 L16.3234898,15.0593061 C16.3234898,17.2451633 18.3936735,17.1066735 18.3936735,17.1066735 Z" id="Shape"></path>
            </g>
        </g>
    </g>
</svg>