<?xml version="1.0" encoding="UTF-8"?>
<svg width="117px" height="117px" viewBox="0 0 117 117" version="1.1" xmlns="http://www.w3.org/2000/svg" xmlns:xlink="http://www.w3.org/1999/xlink">
    <!-- Generator: Sketch 43.1 (39012) - http://www.bohemiancoding.com/sketch -->
    <title>call</title>
    <desc>Created with Sketch.</desc>
    <defs></defs>
    <g id="Page-1" stroke="none" stroke-width="1" fill="none" fill-rule="evenodd">
        <g id="Artboard-12" transform="translate(-108.000000, -108.000000)" fill-rule="nonzero" fill="#FFFFFF">
            <g id="call" transform="translate(108.000000, 108.000000)">
                <path d="M113.724684,90.096614 L90.0861228,74.3324035 C87.0863158,72.3479649 83.0652105,73.0009298 80.8474561,75.8328772 L73.9617895,84.6861053 C73.0768772,85.8529123 71.4682982,86.1913684 70.1881404,85.4802456 L68.8783333,84.7581754 C64.5363333,82.3914912 59.133807,79.4450526 48.2487018,68.5560702 C37.3635965,57.6670877 34.4112281,52.2604561 32.0445439,47.9264386 L31.3263509,46.6166316 C30.6054211,45.3367018 30.9374912,43.7212807 32.1047544,42.8292982 L40.9520526,35.9456842 C43.7828596,33.7277018 44.4367368,29.7077368 42.4545789,26.7070175 L26.6903684,3.06845614 C24.6589474,0.0127719298 20.5833333,-0.904526316 17.4384737,0.985947368 L7.55368421,6.92375439 C4.44782456,8.74968421 2.16917544,11.7068421 1.19554386,15.1755614 C-2.36394737,28.145 0.313824561,50.5282632 33.286386,83.5047018 C59.5153684,109.731632 79.0415965,116.784702 92.462614,116.784702 C95.5513684,116.79793 98.6280351,116.39607 101.609825,115.589842 C105.079228,114.617351 108.036842,112.338474 109.861632,109.231702 L115.805368,99.3528421 C117.698579,96.2072982 116.781737,92.1291754 113.724684,90.096614 Z M112.451825,97.3558596 L106.521772,107.240649 C105.211509,109.483035 103.084298,111.131754 100.585789,111.841509 C88.6127895,115.128684 67.6951053,112.405982 36.0401053,80.7509825 C4.38510526,49.0959825 1.66263158,28.1801228 4.94980702,16.2052982 C5.66047368,13.7038246 7.31124561,11.5738772 9.55636842,10.2615614 L19.4411579,4.33150877 C20.8057018,3.51045614 22.574614,3.9084386 23.4561053,5.2344386 L32.0194561,18.0909825 L39.2068596,28.8709474 C40.0675965,30.1725439 39.7847895,31.9170526 38.5568596,32.880193 L29.7075088,39.763807 C27.0144561,41.8230526 26.2454035,45.5490351 27.9034737,48.506193 L28.6061579,49.7829298 C31.0934912,54.3447895 34.1858947,60.0198596 45.4758246,71.3079649 C56.7657544,82.5958421 62.439,85.6884737 66.998807,88.1755789 L68.2773684,88.8800877 C71.2342982,90.5379298 74.9605088,89.7691053 77.0197544,87.0760526 L83.9033684,78.2267018 C84.8667368,76.9994561 86.6105614,76.7168772 87.912614,77.5767018 L111.549123,93.3409123 C112.876035,94.2217193 113.274018,95.9915439 112.451825,97.3558596 Z" id="Shape"></path>
                <path d="M66.1770702,19.4749123 C84.4411579,19.4952105 99.242,34.2962807 99.2625263,52.5603684 C99.2625263,53.6352632 100.133754,54.5064912 101.208649,54.5064912 C102.283544,54.5064912 103.154772,53.6352632 103.154772,52.5603684 C103.132193,32.1474035 86.5900351,15.6050175 66.1770702,15.5826667 C65.1021754,15.5826667 64.2309474,16.4538947 64.2309474,17.5287895 C64.2309474,18.6036842 65.1021754,19.4749123 66.1770702,19.4749123 Z" id="Shape"></path>
                <path d="M66.1770702,31.1521053 C77.9947544,31.1660175 87.5714211,40.7426842 87.5853333,52.5603684 C87.5853333,53.6352632 88.4567895,54.5064912 89.5314561,54.5064912 C90.6063509,54.5064912 91.4775789,53.6352632 91.4775789,52.5603684 C91.461386,38.593807 80.1434035,27.2758246 66.1770702,27.2598596 C65.1021754,27.2598596 64.2309474,28.1310877 64.2309474,29.2059825 C64.2309474,30.2808772 65.1021754,31.1521053 66.1770702,31.1521053 Z" id="Shape"></path>
                <path d="M66.1770702,42.8292982 C71.5485789,42.8356842 75.9015263,47.1886316 75.9081404,52.5603684 C75.9081404,53.6352632 76.7795965,54.5064912 77.8542632,54.5064912 C78.9289298,54.5064912 79.800386,53.6352632 79.800386,52.5603684 C79.7917193,45.0399825 73.6974561,38.9454912 66.1770702,38.9370526 C65.1021754,38.9370526 64.2309474,39.8082807 64.2309474,40.8831754 C64.2309474,41.9580702 65.1021754,42.8292982 66.1770702,42.8292982 Z" id="Shape"></path>
            </g>
        </g>
    </g>
</svg>