<?xml version="1.0" encoding="UTF-8"?>
<svg width="7px" height="16px" viewBox="0 0 7 16" version="1.1" xmlns="http://www.w3.org/2000/svg" xmlns:xlink="http://www.w3.org/1999/xlink">
    <!-- Generator: Sketch 43.1 (39012) - http://www.bohemiancoding.com/sketch -->
    <title>facebook-logo</title>
    <desc>Created with Sketch.</desc>
    <defs></defs>
    <g id="Page-1" stroke="none" stroke-width="1" fill="none" fill-rule="evenodd">
        <g id="Desktop-HD" transform="translate(-56.000000, -762.000000)" fill-rule="nonzero" fill="#FFFFFF">
            <g id="Group-3" transform="translate(56.000000, 762.000000)">
                <g id="facebook-logo">
                    <path d="M4.66203182,5.09171975 L4.66203182,3.75278603 C4.66203182,3.5517858 4.67094091,3.39609814 4.68904545,3.28611937 C4.70708636,3.17597547 4.74813182,3.06764803 4.81183182,2.96070771 C4.87543636,2.85383345 4.97843182,2.7800519 5.12065909,2.7391649 C5.26307727,2.69821184 5.45233182,2.67780137 5.68861364,2.67780137 L6.97849091,2.67780137 L6.97849091,0 L4.91638636,0 C3.72320455,0 2.86624545,0.293838169 2.34538182,0.881514508 C1.82458182,1.46932295 1.56421364,2.3351498 1.56421364,3.47932531 L1.56421364,5.09168672 L0.0196954545,5.09168672 L0.0196954545,7.76968625 L1.56411818,7.76968625 L1.56411818,15.5394055 L4.662,15.5394055 L4.662,7.76971927 L6.72397727,7.76971927 L6.99653182,5.09171975 L4.66203182,5.09171975 L4.66203182,5.09171975 Z" id="Shape"></path>
                </g>
            </g>
        </g>
    </g>
</svg>