<?xml version="1.0" encoding="UTF-8"?>
<svg width="177px" height="177px" viewBox="0 0 177 177" version="1.1" xmlns="http://www.w3.org/2000/svg" xmlns:xlink="http://www.w3.org/1999/xlink">
    <!-- Generator: Sketch 43.1 (39012) - http://www.bohemiancoding.com/sketch -->
    <title>Artboard 10</title>
    <desc>Created with Sketch.</desc>
    <defs></defs>
    <g id="Page-1" stroke="none" stroke-width="1" fill="none" fill-rule="evenodd">
        <g id="Artboard-10">
            <g id="facebook" transform="translate(54.000000, 28.000000)" fill-rule="nonzero" fill="#FFFFFF">
                <path d="M42.5342466,121 L23.1593802,121 C19.9231592,121 17.2906143,118.367157 17.2906143,115.130569 L17.2906143,71.4246367 L5.98691686,71.4246367 C2.75069563,71.4246367 0.118150685,68.7908706 0.118150685,65.5552063 L0.118150685,46.8271255 C0.118150685,43.5905381 2.75069563,40.9576951 5.98691686,40.9576951 L17.2906143,40.9576951 L17.2906143,31.5793457 C17.2906143,22.2803879 20.2102285,14.3689346 25.7328501,8.7016753 C31.2803938,3.00856787 39.0331095,0 48.1528655,0 L62.9290856,0.024001957 C66.1597684,0.0295410156 68.7876979,2.66238403 68.7876979,5.89343262 L68.7876979,23.2820129 C68.7876979,26.5186006 66.1560762,29.1514434 62.9207782,29.1514434 L52.9721211,29.1551362 C49.9380484,29.1551362 49.1654538,29.7634963 49.0002274,29.9499741 C48.7279271,30.2592314 48.4039357,31.1334609 48.4039357,33.5475159 L48.4039357,40.956772 L62.1731057,40.956772 C63.2096934,40.956772 64.2139743,41.2124863 65.0770282,41.694374 C66.9388244,42.7347717 68.0963318,44.7020188 68.0963318,46.8280488 L68.0889474,65.5561294 C68.0889474,68.7908706 65.4564024,71.4237136 62.2201815,71.4237136 L48.4039357,71.4237136 L48.4039357,115.130569 C48.4039357,118.367157 45.7704676,121 42.5342466,121 L42.5342466,121 Z M24.3833476,113.906464 L41.3102792,113.906464 L41.3102792,68.2489775 C41.3102792,66.0878677 43.0686939,64.3301772 45.2286361,64.3301772 L60.9962141,64.3301772 L61.0026755,48.0512314 L45.2277131,48.0512314 C43.0677706,48.0512314 41.3102792,46.293541 41.3102792,44.1324311 L41.3102792,33.5475159 C41.3102792,30.7761992 41.5918103,27.6245422 43.6834465,25.2557222 C46.2107637,22.3920898 50.1937338,22.0615996 52.9702749,22.0615996 L61.6949648,22.0579072 L61.6949648,7.11569214 L48.1473271,7.09353638 C33.491104,7.09353638 24.3833476,16.4765015 24.3833476,31.5793457 L24.3833476,44.1324311 C24.3833476,46.2926177 22.6258562,48.0512314 20.465914,48.0512314 L7.21088399,48.0512314 L7.21088399,64.3301772 L20.465914,64.3301772 C22.6258562,64.3301772 24.3833476,66.0878677 24.3833476,68.2489775 L24.3833476,113.906464 Z M62.9152397,7.11753857 L62.9161627,7.11753857 L62.9152397,7.11753857 Z" id="Shape"></path>
            </g>
            <rect id="Rectangle-29" stroke="#FFFFFF" stroke-width="9" x="4.5" y="4.5" width="168" height="168"></rect>
        </g>
    </g>
</svg>