<?xml version="1.0" encoding="UTF-8"?>
<svg width="177px" height="177px" viewBox="0 0 177 177" version="1.1" xmlns="http://www.w3.org/2000/svg" xmlns:xlink="http://www.w3.org/1999/xlink">
    <!-- Generator: Sketch 43.1 (39012) - http://www.bohemiancoding.com/sketch -->
    <title>Artboard 10</title>
    <desc>Created with Sketch.</desc>
    <defs></defs>
    <g id="Page-1" stroke="none" stroke-width="1" fill="none" fill-rule="evenodd">
        <g id="Artboard-10">
            <g id="instagram" transform="translate(40.000000, 22.000000)" fill-rule="nonzero" fill="#FFFFFF">
                <path d="M48.5,18.1029128 C21.8133394,18.1029128 0.102912816,39.8133394 0.102912816,66.5 C0.102912816,93.1866606 21.8133394,114.897087 48.5,114.897087 C75.1866606,114.897087 96.8970872,93.1866606 96.8970872,66.5 C96.8970872,39.8133394 75.1866606,18.1029128 48.5,18.1029128 L48.5,18.1029128 Z M48.5,104.520592 C27.5363464,104.520592 10.4794082,87.4650039 10.4794082,66.5 C10.4794082,45.5363464 27.5363464,28.4794082 48.5,28.4794082 C69.4650039,28.4794082 86.5205918,45.5363464 86.5205918,66.5 C86.5205918,87.4650039 69.4650039,104.520592 48.5,104.520592 L48.5,104.520592 Z" id="Shape"></path>
                <path d="M98.0543823,0.91498557 C90.1680298,0.91498557 83.7536162,7.33074951 83.7536162,15.2157517 C83.7536162,23.1021043 90.1680298,29.5178682 98.0543823,29.5178682 C105.940735,29.5178682 112.356499,23.1021043 112.356499,15.2157517 C112.356499,7.3293992 105.940735,0.91498557 98.0543823,0.91498557 Z M98.0543823,19.1400222 C95.8910372,19.1400222 94.1301119,17.3790969 94.1301119,15.2157517 C94.1301119,13.0510559 95.8910372,11.2914809 98.0543823,11.2914809 C100.219078,11.2914809 101.980003,13.0510559 101.980003,15.2157517 C101.980003,17.3790969 100.219078,19.1400222 98.0543823,19.1400222 Z" id="Shape"></path>
            </g>
            <rect id="Rectangle-29" stroke="#FFFFFF" stroke-width="9" x="4.5" y="4.5" width="168" height="168"></rect>
        </g>
    </g>
</svg>