<?xml version="1.0" encoding="UTF-8"?>
<svg width="17px" height="17px" viewBox="0 0 17 17" version="1.1" xmlns="http://www.w3.org/2000/svg" xmlns:xlink="http://www.w3.org/1999/xlink">
    <!-- Generator: Sketch 43.1 (39012) - http://www.bohemiancoding.com/sketch -->
    <title>instagram-logo</title>
    <desc>Created with Sketch.</desc>
    <defs></defs>
    <g id="Page-1" stroke="none" stroke-width="1" fill="none" fill-rule="evenodd">
        <g id="Desktop-HD" transform="translate(-80.000000, -762.000000)" fill-rule="nonzero" fill="#FFFFFF">
            <g id="Group-3" transform="translate(56.000000, 762.000000)">
                <g id="instagram-logo" transform="translate(24.000000, 0.000000)">
                    <path d="M12.2406,0 L4.6654,0 C2.0929,0 0,2.093 0,4.6655 L0,12.2407 C0,14.8133 2.0929,16.9062 4.6654,16.9062 L12.2406,16.9062 C14.8133,16.9062 16.9062,14.8132 16.9062,12.2407 L16.9062,4.6655 C16.9063,2.093 14.8133,0 12.2406,0 Z M15.4063,12.2407 C15.4063,13.9862 13.9862,15.4062 12.2407,15.4062 L4.6654,15.4062 C2.92,15.4063 1.5,13.9862 1.5,12.2407 L1.5,4.6655 C1.5,2.9201 2.92,1.5 4.6654,1.5 L12.2406,1.5 C13.9861,1.5 15.4062,2.9201 15.4062,4.6655 L15.4062,12.2407 L15.4063,12.2407 Z" id="Shape"></path>
                    <path d="M8.4531,4.097 C6.051,4.097 4.0968,6.0512 4.0968,8.4533 C4.0968,10.8553 6.051,12.8094 8.4531,12.8094 C10.8552,12.8094 12.8094,10.8553 12.8094,8.4533 C12.8094,6.0512 10.8552,4.097 8.4531,4.097 Z M8.4531,11.3093 C6.8782,11.3093 5.5968,10.0281 5.5968,8.4532 C5.5968,6.8782 6.8781,5.5969 8.4531,5.5969 C10.0281,5.5969 11.3094,6.8782 11.3094,8.4532 C11.3094,10.0281 10.028,11.3093 8.4531,11.3093 Z" id="Shape"></path>
                    <path d="M12.9921,2.8251 C12.7031,2.8251 12.4192,2.9421 12.2151,3.1471 C12.01,3.3511 11.8921,3.6351 11.8921,3.9251 C11.8921,4.2142 12.0101,4.4981 12.2151,4.7031 C12.4191,4.9071 12.7031,5.0251 12.9921,5.0251 C13.2821,5.0251 13.5651,4.9071 13.7701,4.7031 C13.9751,4.4981 14.0921,4.2141 14.0921,3.9251 C14.0921,3.6351 13.9751,3.3511 13.7701,3.1471 C13.5661,2.9421 13.2821,2.8251 12.9921,2.8251 Z" id="Shape"></path>
                </g>
            </g>
        </g>
    </g>
</svg>