<?xml version="1.0" encoding="UTF-8"?>
<svg width="26px" height="26px" viewBox="0 0 26 26" version="1.1" xmlns="http://www.w3.org/2000/svg" xmlns:xlink="http://www.w3.org/1999/xlink">
    <!-- Generator: Sketch 43.1 (39012) - http://www.bohemiancoding.com/sketch -->
    <title>instagram-logo (1)</title>
    <desc>Created with Sketch.</desc>
    <defs></defs>
    <g id="Page-1" stroke="none" stroke-width="1" fill="none" fill-rule="evenodd">
        <g id="Desktop-HD" transform="translate(-283.000000, -5043.000000)" fill-rule="nonzero" fill="#D0D0D0">
            <g id="instagram-logo-(1)" transform="translate(283.000000, 5043.000000)">
                <path d="M12.909,15.49392 C14.33328,15.49392 15.49444,14.33484 15.49444,12.90952 C15.49444,12.34688 15.31036,11.8274 15.00564,11.40308 C14.53608,10.75204 13.77272,10.32512 12.91056,10.32512 C12.04788,10.32512 11.28504,10.75152 10.81444,11.40256 C10.50868,11.82688 10.32616,12.34636 10.32564,12.909 C10.32408,14.33432 11.4842,15.49392 12.909,15.49392 Z" id="Shape"></path>
                <polygon id="Shape" points="18.55256 9.74792 18.55256 7.5816 18.55256 7.2592 18.2286 7.26024 16.06332 7.267 16.07164 9.75624"></polygon>
                <path d="M12.90952,0 C5.79124,0 0,5.79124 0,12.90952 C0,20.02728 5.79124,25.81904 12.90952,25.81904 C20.02728,25.81904 25.81904,20.02728 25.81904,12.90952 C25.81904,5.79124 20.02832,0 12.90952,0 Z M20.2514,11.40308 L20.2514,17.41428 C20.2514,18.98 18.97844,20.25244 17.41376,20.25244 L8.40528,20.25244 C6.84008,20.25244 5.56764,18.98 5.56764,17.41428 L5.56764,11.40308 L5.56764,8.4058 C5.56764,6.8406 6.84008,5.56816 8.40528,5.56816 L17.41324,5.56816 C18.97844,5.56816 20.2514,6.8406 20.2514,8.4058 L20.2514,11.40308 Z" id="Shape"></path>
                <path d="M16.92548,12.90952 C16.92548,15.12316 15.1242,16.92548 12.90952,16.92548 C10.69484,16.92548 8.89408,15.12316 8.89408,12.90952 C8.89408,12.37704 9.00016,11.86796 9.18944,11.40308 L6.99764,11.40308 L6.99764,17.41428 C6.99764,18.19116 7.6284,18.82036 8.40476,18.82036 L17.41272,18.82036 C18.18804,18.82036 18.81984,18.19116 18.81984,17.41428 L18.81984,11.40308 L16.627,11.40308 C16.81784,11.86796 16.92548,12.37704 16.92548,12.90952 Z" id="Shape"></path>
            </g>
        </g>
    </g>
</svg>