<?xml version="1.0" encoding="UTF-8"?>
<svg width="22px" height="15px" viewBox="0 0 22 15" version="1.1" xmlns="http://www.w3.org/2000/svg" xmlns:xlink="http://www.w3.org/1999/xlink">
    <!-- Generator: Sketch 43.1 (39012) - http://www.bohemiancoding.com/sketch -->
    <title>letter</title>
    <desc>Created with Sketch.</desc>
    <defs></defs>
    <g id="Page-1" stroke="none" stroke-width="1" fill="none" fill-rule="evenodd">
        <g id="Desktop-HD" transform="translate(-210.000000, -5003.000000)" fill-rule="nonzero" fill="#B5B5B5">
            <g id="letter" transform="translate(210.000000, 5003.000000)">
                <path d="M19.1661162,14.9779797 L2.14014742,14.9779797 C0.951171688,14.9779797 0,14.0457558 0,12.8804651 L0,2.11329942 C0,0.948008721 0.951171688,0.0157848837 2.14014742,0.0157848837 L19.1185554,0.0157848837 C20.3075311,0.0157848837 21.2587028,0.948008721 21.2587028,2.11329942 L21.2587028,12.8804651 C21.3062191,14.0457558 20.3075311,14.9779797 19.1661162,14.9779797 Z M2.14014742,1.41414244 C1.75966095,1.41414244 1.42677978,1.74043605 1.42677978,2.11329942 L1.42677978,12.8804651 C1.42677978,13.2533721 1.75970544,13.5796221 2.14014742,13.5796221 L19.1185554,13.5796221 C19.4990418,13.5796221 19.831923,13.2533285 19.831923,12.8804651 L19.831923,2.11329942 C19.831923,1.74039244 19.4989974,1.41414244 19.1185554,1.41414244 L2.14014742,1.41414244 L2.14014742,1.41414244 Z" id="Shape"></path>
                <path d="M10.6531318,10.0837936 C10.4628886,10.0837936 10.3202061,10.0371802 10.1775682,9.89734012 L0.665806834,1.6471657 C0.38044198,1.41409884 0.332881172,0.948008721 0.618246025,0.668328488 C0.85605007,0.388648256 1.33161367,0.342034884 1.61697852,0.621715116 L10.6530873,8.45241279 L19.6891961,0.621715116 C19.9745609,0.388648256 20.4501245,0.388648256 20.6879286,0.668328488 C20.9257326,0.948008721 20.9257326,1.41409884 20.6403678,1.6471657 L11.1286509,9.89734012 C10.986013,9.99056686 10.7958142,10.0837936 10.6531318,10.0837936 Z" id="Shape"></path>
                <g id="Group" transform="translate(0.133473, 6.671512)">
                    <path d="M0.722577266,7.65392442 C0.532334031,7.65392442 0.342090795,7.56069767 0.199452859,7.42085756 C-0.0859119944,7.14117733 -0.0383511855,6.67508721 0.247013668,6.44202035 L7.0003371,0.196133721 C7.28570195,-0.0835465116 7.76126555,-0.0369331395 7.9990696,0.242747093 C8.28443445,0.522427326 8.23687364,0.988517442 7.95150879,1.2215843 L1.24570167,7.46747093 C1.10306374,7.56069767 0.912820502,7.65392442 0.722577266,7.65392442 Z" id="Shape"></path>
                    <path d="M20.2691354,7.65392442 C20.0788922,7.65392442 19.9362098,7.60731105 19.7935273,7.46747093 L13.0402484,1.2215843 C12.7548835,0.94190407 12.7548835,0.522427326 12.9926876,0.242747093 C13.2780524,-0.0369331395 13.7060552,-0.0369331395 13.9914201,0.196133721 L20.7447435,6.44202035 C21.0301084,6.72170058 21.0301084,7.14117733 20.7923043,7.42085756 C20.6496219,7.56069767 20.4593787,7.65392442 20.2691354,7.65392442 Z" id="Shape"></path>
                </g>
            </g>
        </g>
    </g>
</svg>