<?xml version="1.0" encoding="UTF-8"?>
<svg width="703px" height="185px" viewBox="0 0 703 185" version="1.1" xmlns="http://www.w3.org/2000/svg" xmlns:xlink="http://www.w3.org/1999/xlink">
    <!-- Generator: Sketch 43.1 (39012) - http://www.bohemiancoding.com/sketch -->
    <title>download</title>
    <desc>Created with Sketch.</desc>
    <defs></defs>
    <g id="Page-1" stroke="none" stroke-width="1" fill="none" fill-rule="evenodd">
        <g id="download">
            <polygon id="Fill-11" fill="#FFFFFF" fill-rule="nonzero" points="0.862544817 153.400188 16.1073577 153.400188 16.1073577 0.690960022 0.862544817 0.690960022"></polygon>
            <polygon id="Stroke-12" stroke="#FFFFFF" stroke-width="0.5669" points="0.862544817 153.400188 16.1073577 153.400188 16.1073577 0.690960022 0.862544817 0.690960022"></polygon>
            <polygon id="Fill-13" fill="#FFFFFF" fill-rule="nonzero" points="0.862544817 183.941818 16.1073577 183.941818 16.1073577 168.671273 0.862544817 168.671273"></polygon>
            <polygon id="Stroke-14" stroke="#FFFFFF" stroke-width="0.5669" points="0.862544817 183.941818 16.1073577 183.941818 16.1073577 168.671273 0.862544817 168.671273"></polygon>
            <path d="M46.5964455,61.7742203 C71.8549605,61.7742203 92.3298085,82.2854302 92.3298085,107.586396 C92.3298085,132.888439 71.8549605,153.398572 46.5964455,153.398572 C21.3379305,153.398572 0.862544817,132.888439 0.862544817,107.586396 C0.862544817,82.2854302 21.3379305,61.7742203 46.5964455,61.7742203 Z M46.5964455,77.044766 L46.5964455,77.044766 C29.757077,77.044766 16.1073577,90.7196243 16.1073577,107.586396 C16.1073577,124.454245 29.757077,138.129642 46.5964455,138.129642 C63.4352763,138.129642 77.0855334,124.454245 77.0855334,107.586396 C77.0855334,90.7196243 63.4352763,77.044766 46.5964455,77.044766 Z" id="Fill-15" fill="#FFFFFF" fill-rule="nonzero"></path>
            <path d="M46.5964455,61.7742203 C71.8549605,61.7742203 92.3298085,82.2854302 92.3298085,107.586396 C92.3298085,132.888439 71.8549605,153.398572 46.5964455,153.398572 C21.3379305,153.398572 0.862544817,132.888439 0.862544817,107.586396 C0.862544817,82.2854302 21.3379305,61.7742203 46.5964455,61.7742203 Z M46.5964455,77.044766 L46.5964455,77.044766 C29.757077,77.044766 16.1073577,90.7196243 16.1073577,107.586396 C16.1073577,124.454245 29.757077,138.129642 46.5964455,138.129642 C63.4352763,138.129642 77.0855334,124.454245 77.0855334,107.586396 C77.0855334,90.7196243 63.4352763,77.044766 46.5964455,77.044766 Z" id="Stroke-16" stroke="#FFFFFF" stroke-width="0.5669"></path>
            <path d="M199.041347,61.7742203 C224.298787,61.7742203 244.775248,82.2854302 244.775248,107.586396 C244.775248,132.888439 224.298787,153.398572 199.041347,153.398572 C173.784446,153.398572 153.307984,132.888439 153.307984,107.586396 C153.307984,82.2854302 173.784446,61.7742203 199.041347,61.7742203 Z M199.041347,77.044766 L199.041347,77.044766 C182.202516,77.044766 168.552259,90.7196243 168.552259,107.586396 C168.552259,124.454245 182.202516,138.129642 199.041347,138.129642 C215.880716,138.129642 229.530435,124.454245 229.530435,107.586396 C229.530435,90.7196243 215.880716,77.044766 199.041347,77.044766 Z" id="Fill-17" fill="#FFFFFF" fill-rule="nonzero"></path>
            <path d="M199.041347,61.7742203 C224.298787,61.7742203 244.775248,82.2854302 244.775248,107.586396 C244.775248,132.888439 224.298787,153.398572 199.041347,153.398572 C173.784446,153.398572 153.307984,132.888439 153.307984,107.586396 C153.307984,82.2854302 173.784446,61.7742203 199.041347,61.7742203 Z M199.041347,77.044766 L199.041347,77.044766 C182.202516,77.044766 168.552259,90.7196243 168.552259,107.586396 C168.552259,124.454245 182.202516,138.129642 199.041347,138.129642 C215.880716,138.129642 229.530435,124.454245 229.530435,107.586396 C229.530435,90.7196243 215.880716,77.044766 199.041347,77.044766 Z" id="Stroke-18" stroke="#FFFFFF" stroke-width="0.5669"></path>
            <path d="M351.486787,61.7742203 C376.745302,61.7742203 397.22015,82.2854302 397.22015,107.586396 C397.22015,132.888439 376.745302,153.398572 351.486787,153.398572 C326.229885,153.398572 305.753424,132.888439 305.753424,107.586396 C305.753424,82.2854302 326.229885,61.7742203 351.486787,61.7742203 Z M351.486787,77.044766 L351.486787,77.044766 C334.647418,77.044766 320.997699,90.7196243 320.997699,107.586396 C320.997699,124.454245 334.647418,138.129642 351.486787,138.129642 C368.325617,138.129642 381.975875,124.454245 381.975875,107.586396 C381.975875,90.7196243 368.325617,77.044766 351.486787,77.044766 Z" id="Fill-19" fill="#FFFFFF" fill-rule="nonzero"></path>
            <path d="M351.486787,61.7742203 C376.745302,61.7742203 397.22015,82.2854302 397.22015,107.586396 C397.22015,132.888439 376.745302,153.398572 351.486787,153.398572 C326.229885,153.398572 305.753424,132.888439 305.753424,107.586396 C305.753424,82.2854302 326.229885,61.7742203 351.486787,61.7742203 Z M351.486787,77.044766 L351.486787,77.044766 C334.647418,77.044766 320.997699,90.7196243 320.997699,107.586396 C320.997699,124.454245 334.647418,138.129642 351.486787,138.129642 C368.325617,138.129642 381.975875,124.454245 381.975875,107.586396 C381.975875,90.7196243 368.325617,77.044766 351.486787,77.044766 Z" id="Stroke-20" stroke="#FFFFFF" stroke-width="0.5669"></path>
            <path d="M503.932226,61.7742203 C529.190741,61.7742203 549.665589,82.2854302 549.665589,107.586396 C549.665589,132.888439 529.190741,153.398572 503.932226,153.398572 C478.674787,153.398572 458.198325,132.888439 458.198325,107.586396 C458.198325,82.2854302 478.674787,61.7742203 503.932226,61.7742203 Z M503.932226,77.044766 L503.932226,77.044766 C487.092858,77.044766 473.443138,90.7196243 473.443138,107.586396 C473.443138,124.454245 487.092858,138.129642 503.932226,138.129642 C520.771057,138.129642 534.420776,124.454245 534.420776,107.586396 C534.420776,90.7196243 520.771057,77.044766 503.932226,77.044766 Z" id="Fill-21" fill="#FFFFFF" fill-rule="nonzero"></path>
            <path d="M503.932226,61.7742203 C529.190741,61.7742203 549.665589,82.2854302 549.665589,107.586396 C549.665589,132.888439 529.190741,153.398572 503.932226,153.398572 C478.674787,153.398572 458.198325,132.888439 458.198325,107.586396 C458.198325,82.2854302 478.674787,61.7742203 503.932226,61.7742203 Z M503.932226,77.044766 L503.932226,77.044766 C487.092858,77.044766 473.443138,90.7196243 473.443138,107.586396 C473.443138,124.454245 487.092858,138.129642 503.932226,138.129642 C520.771057,138.129642 534.420776,124.454245 534.420776,107.586396 C534.420776,90.7196243 520.771057,77.044766 503.932226,77.044766 Z" id="Stroke-22" stroke="#FFFFFF" stroke-width="0.5669"></path>
            <polygon id="Fill-23" fill="#FFFFFF" fill-rule="nonzero" points="686.866216 153.400188 702.110491 153.400188 702.110491 0.690960022 686.866216 0.690960022"></polygon>
            <polygon id="Stroke-24" stroke="#FFFFFF" stroke-width="0.5669" points="686.866216 153.400188 702.110491 153.400188 702.110491 0.690960022 686.866216 0.690960022"></polygon>
            <polygon id="Fill-25" fill="#FFFFFF" fill-rule="nonzero" points="686.866216 183.941818 702.110491 183.941818 702.110491 168.671273 686.866216 168.671273"></polygon>
            <polygon id="Stroke-26" stroke="#FFFFFF" stroke-width="0.5669" points="686.866216 183.941818 702.110491 183.941818 702.110491 168.671273 686.866216 168.671273"></polygon>
            <path d="M656.377128,61.7742203 C681.634029,61.7742203 702.110491,82.2854302 702.110491,107.586396 C702.110491,132.888439 681.634029,153.398572 656.377128,153.398572 C631.120226,153.398572 610.643765,132.888439 610.643765,107.586396 C610.643765,82.2854302 631.120226,61.7742203 656.377128,61.7742203 Z M656.377128,77.044766 L656.377128,77.044766 C639.538297,77.044766 625.88804,90.7196243 625.88804,107.586396 C625.88804,124.454245 639.538297,138.129642 656.377128,138.129642 C673.216496,138.129642 686.866216,124.454245 686.866216,107.586396 C686.866216,90.7196243 673.216496,77.044766 656.377128,77.044766 Z" id="Fill-27" fill="#FFFFFF" fill-rule="nonzero"></path>
            <path d="M656.377128,61.7742203 C681.634029,61.7742203 702.110491,82.2854302 702.110491,107.586396 C702.110491,132.888439 681.634029,153.398572 656.377128,153.398572 C631.120226,153.398572 610.643765,132.888439 610.643765,107.586396 C610.643765,82.2854302 631.120226,61.7742203 656.377128,61.7742203 Z M656.377128,77.044766 L656.377128,77.044766 C639.538297,77.044766 625.88804,90.7196243 625.88804,107.586396 C625.88804,124.454245 639.538297,138.129642 656.377128,138.129642 C673.216496,138.129642 686.866216,124.454245 686.866216,107.586396 C686.866216,90.7196243 673.216496,77.044766 656.377128,77.044766 Z" id="Stroke-28" stroke="#FFFFFF" stroke-width="0.5669"></path>
        </g>
    </g>
</svg>