<?xml version="1.0" encoding="UTF-8"?>
<svg width="177px" height="177px" viewBox="0 0 177 177" version="1.1" xmlns="http://www.w3.org/2000/svg" xmlns:xlink="http://www.w3.org/1999/xlink">
    <!-- Generator: Sketch 43.1 (39012) - http://www.bohemiancoding.com/sketch -->
    <title>Artboard 10</title>
    <desc>Created with Sketch.</desc>
    <defs></defs>
    <g id="Page-1" stroke="none" stroke-width="1" fill="none" fill-rule="evenodd">
        <g id="Artboard-10">
            <rect id="Rectangle-29" stroke="#FFFFFF" stroke-width="9" x="4.5" y="4.5" width="168" height="168"></rect>
            <g id="phone" transform="translate(33.000000, 32.000000)" fill-rule="nonzero" fill="#FFFFFF">
                <path d="M77.4711579,107.793895 C73.9915789,107.793895 70.5414737,107.178737 67.1677895,105.953053 C52.3050526,100.553895 38.5092632,91.7602105 27.2713684,80.5225263 C16.0334737,69.2848421 7.23978947,55.4888421 1.84084211,40.6261053 C0.105894737,35.8496842 -0.406105263,30.9191579 0.319578947,25.9709474 C0.999368421,21.336 2.79473684,16.8364211 5.51178947,12.9585263 C8.24084211,9.06357895 11.8791579,5.824 16.0332632,3.59010526 C20.4631579,1.208 25.2983158,0 30.4048421,0 C31.9930526,0 33.3656842,1.10968421 33.6985263,2.66252632 L38.9856842,27.336 C39.2250526,28.4532632 38.8816842,29.6157895 38.0738947,30.4237895 L29.0395789,39.4578947 C37.5621053,56.4023158 51.3911579,70.2313684 68.3355789,78.7538947 L77.3696842,69.7195789 C78.1776842,68.9117895 79.3404211,68.5688421 80.4574737,68.8077895 L105.130947,74.0949474 C106.684,74.4277895 107.793474,75.8004211 107.793474,77.3886316 C107.793474,82.4951579 106.585474,87.3305263 104.203158,91.7604211 C101.969263,95.9145263 98.7296842,99.5528421 94.8347368,102.281895 C90.9570526,104.998947 86.4574737,106.794316 81.8223158,107.474105 C80.3698947,107.687368 78.9176842,107.793684 77.4711579,107.793895 L77.4711579,107.793895 Z M27.7134737,6.88421053 C20.9776842,7.62778947 14.9991579,11.1583158 11.0290526,16.8246316 C6.56463158,23.1962105 5.52357895,31.0330526 8.17284211,38.3261053 C18.5526316,66.9 40.8938947,89.2412632 69.4677895,99.6210526 C76.7606316,102.270316 84.5974737,101.229474 90.9692632,96.7648421 C96.6355789,92.7947368 100.166105,86.8162105 100.909684,80.0804211 L80.8378947,75.7793684 L71.4029474,85.2143158 C70.3989474,86.2183158 68.8734737,86.4850526 67.5888421,85.8812632 C47.5488421,76.4665263 31.3273684,60.2450526 21.9126316,40.2050526 C21.3090526,38.9202105 21.5755789,37.3947368 22.5795789,36.3909474 L32.0145263,26.956 L27.7134737,6.88421053 Z" id="Shape"></path>
            </g>
        </g>
    </g>
</svg>