<?xml version="1.0" encoding="UTF-8"?>
<svg width="189px" height="47px" viewBox="0 0 189 47" version="1.1" xmlns="http://www.w3.org/2000/svg" xmlns:xlink="http://www.w3.org/1999/xlink">
    <!-- Generator: Sketch 43.1 (39012) - http://www.bohemiancoding.com/sketch -->
    <title>savinov</title>
    <desc>Created with Sketch.</desc>
    <defs></defs>
    <g id="Page-1" stroke="none" stroke-width="1" fill="none" fill-rule="evenodd">
        <g id="Artboard-6" transform="translate(-208.000000, -326.000000)">
            <g id="savinov" transform="translate(208.000000, 327.000000)">
                <g id="Group-8" transform="translate(13.000000, 9.889800)">
                    <path d="M2.4551,15.6666 C1.4182,15.3035 0.6163,14.8255 0.0502,14.2306 L0.6812,12.9895 C1.2331,13.5414 1.9653,13.9876 2.8803,14.3275 C3.7942,14.6696 4.7373,14.8394 5.7093,14.8394 C7.0722,14.8394 8.0952,14.5897 8.7772,14.0885 C9.4592,13.5885 9.8002,12.9385 9.8002,12.1406 C9.8002,11.5317 9.6151,11.0455 9.2452,10.6827 C8.8753,10.3204 8.422,10.0407 7.8851,9.8445 C7.3483,9.6486 6.601,9.4346 5.6441,9.2025 C4.4972,8.9125 3.5833,8.6335 2.9013,8.3645 C2.2192,8.0967 1.635,7.6865 1.1492,7.1354 C0.663,6.5835 0.4201,5.8366 0.4201,4.8935 C0.4201,4.1245 0.6231,3.4246 1.0301,2.7936 C1.436,2.1626 2.0602,1.6586 2.9013,1.2805 C3.742,0.9035 4.7871,0.7147 6.0352,0.7147 C6.906,0.7147 7.7581,0.8346 8.5921,1.0735 C9.4272,1.3136 10.148,1.6436 10.758,2.0645 L10.2141,3.3486 C9.5751,2.9277 8.8943,2.6125 8.168,2.4016 C7.4421,2.1915 6.7323,2.0855 6.0352,2.0855 C4.7001,2.0855 3.6961,2.3435 3.0212,2.8585 C2.3462,3.3736 2.0092,4.0374 2.0092,4.8496 C2.0092,5.4596 2.194,5.9486 2.5642,6.3196 C2.9341,6.6887 3.3982,6.9716 3.9572,7.1675 C4.515,7.3636 5.2662,7.5776 6.2093,7.8095 C7.3261,8.0856 8.2293,8.3574 8.9192,8.6256 C9.608,8.8946 10.1923,9.3005 10.671,9.8445 C11.1501,10.3885 11.389,11.1255 11.389,12.0535 C11.389,12.8226 11.1821,13.5225 10.7691,14.1534 C10.3552,14.7856 9.7203,15.2856 8.8651,15.6555 C8.0082,16.0254 6.9562,16.2106 5.7093,16.2106 C4.5771,16.2106 3.4923,16.0297 2.4551,15.6666" id="Fill-1" fill="#1D1D1B"></path>
                    <path d="M34.7414,10.7045 L31.0856,2.5215 L27.4283,10.7045 L34.7414,10.7045 Z M35.3293,12.0105 L26.8415,12.0105 L25.0135,16.0804 L23.3374,16.0804 L30.3015,0.8454 L31.8903,0.8454 L38.8545,16.0804 L37.1574,16.0804 L35.3293,12.0105 Z" id="Fill-2" fill="#1D1D1B"></path>
                    <polygon id="Fill-3" fill="#1D1D1B" points="62.3611 0.8454 55.614 16.0804 54.0249 16.0804 47.2791 0.8454 49.0201 0.8454 54.8529 14.0775 60.7292 0.8454"></polygon>
                    <polygon id="Fill-4" fill="#1D1D1B" points="73.1293 14.0778 78.9625 0.8456 80.7035 0.8456 73.9565 16.0799 72.2614 16.0799"></polygon>
                    <polygon id="Fill-5" fill="#1D1D1B" points="105.6268 0.8454 105.6268 16.0804 104.2991 16.0804 94.506 3.7186 94.506 16.0804 92.895 16.0804 92.895 0.8454 94.2231 0.8454 104.038 13.2075 104.038 0.8454"></polygon>
                    <path d="M131.3949,13.9581 C132.3669,13.4142 133.1289,12.6602 133.6799,11.695 C134.231,10.73 134.5068,9.6532 134.5068,8.4632 C134.5068,7.2732 134.231,6.196 133.6799,5.2311 C133.1289,4.2662 132.3669,3.5111 131.3949,2.9671 C130.4229,2.4231 129.335,2.151 128.13,2.151 C126.9258,2.151 125.8339,2.4231 124.8548,2.9671 C123.8757,3.5111 123.1058,4.2662 122.548,5.2311 C121.989,6.196 121.7098,7.2732 121.7098,8.4632 C121.7098,9.6532 121.989,10.73 122.548,11.695 C123.1058,12.6602 123.8757,13.4142 124.8548,13.9581 C125.8339,14.5021 126.9258,14.774 128.13,14.774 C129.335,14.774 130.4229,14.5021 131.3949,13.9581 Z M124.0279,15.198 C122.802,14.5239 121.8438,13.599 121.1547,12.424 C120.4659,11.2479 120.1209,9.9281 120.1209,8.4632 C120.1209,6.9971 120.4659,5.677 121.1547,4.502 C121.8438,3.326 122.802,2.401 124.0279,1.7269 C125.2539,1.052 126.6208,0.715 128.13,0.715 C129.6388,0.715 130.9997,1.0492 132.211,1.7162 C133.422,2.3831 134.3769,3.3081 135.0729,4.491 C135.7688,5.673 136.118,6.9971 136.118,8.4632 C136.118,9.9281 135.7688,11.2522 135.0729,12.4351 C134.3769,13.6171 133.422,14.5421 132.211,15.2091 C130.9997,15.8772 129.6388,16.21 128.13,16.21 C126.6208,16.21 125.2539,15.8729 124.0279,15.198 L124.0279,15.198 Z" id="Fill-6" fill="#1D1D1B"></path>
                    <polygon id="Fill-7" fill="#1D1D1B" points="162.8215 0.8454 156.0745 16.0804 154.4854 16.0804 147.7395 0.8454 149.4802 0.8454 155.3134 14.0775 161.1893 0.8454"></polygon>
                    <path d="M4.36087031,35.643675 L3.41751094,35.643675 L3.04251094,34.6680891 L1.32571406,34.6680891 L0.971221875,35.643675 L0.0513,35.643675 L1.72415156,31.3487531 L2.64114375,31.3487531 L4.36087031,35.643675 Z M2.76419063,33.9444562 L2.17239375,32.3507062 L1.59231563,33.9444562 L2.76419063,33.9444562 Z" id="A" fill="#000000"></path>
                    <path d="M18.4139531,35.643675 L18.4139531,31.3487531 L20.2391484,31.3487531 C20.6981351,31.3487531 21.0316279,31.387327 21.2396367,31.4644758 C21.4476456,31.5416246 21.6141478,31.6788303 21.7391484,31.8760969 C21.8641491,32.0733635 21.9266484,32.2989472 21.9266484,32.5528547 C21.9266484,32.8751219 21.8319228,33.1412325 21.6424688,33.3511945 C21.4530147,33.5611565 21.1698144,33.6934794 20.7928594,33.7481672 C20.9803603,33.8575427 21.1351439,33.9776587 21.2572148,34.1085187 C21.3792858,34.2393788 21.5438349,34.4717983 21.7508672,34.8057844 L22.2752813,35.643675 L21.2381719,35.643675 L20.6112188,34.7091047 C20.3885614,34.3751186 20.2362192,34.1646715 20.1541875,34.077757 C20.0721558,33.9908425 19.9852426,33.9312728 19.8934453,33.8990461 C19.801648,33.8668194 19.6561416,33.8507062 19.4569219,33.8507062 L19.2811406,33.8507062 L19.2811406,35.643675 L18.4139531,35.643675 Z M19.2811406,33.1651594 L19.9227422,33.1651594 C20.3387599,33.1651594 20.5985229,33.1475814 20.7020391,33.112425 C20.8055552,33.0772686 20.8866091,33.0167223 20.9452031,32.9307844 C21.0037972,32.8448464 21.0330938,32.7374256 21.0330938,32.6085187 C21.0330938,32.4639868 20.9945199,32.3472887 20.9173711,32.2584211 C20.8402223,32.1695535 20.7313366,32.1134017 20.5907109,32.0899641 C20.5203981,32.0801984 20.3094627,32.0753156 19.9578984,32.0753156 L19.2811406,32.0753156 L19.2811406,33.1651594 Z" id="R" fill="#000000"></path>
                    <path d="M39.0819703,34.0645734 L39.9227906,34.331175 C39.7938837,34.7999273 39.5795304,35.1480684 39.2797242,35.3756086 C38.979918,35.6031488 38.5995507,35.7169172 38.1386109,35.7169172 C37.5682956,35.7169172 37.0995503,35.5220949 36.7323609,35.1324445 C36.3651716,34.7427941 36.1815797,34.2100846 36.1815797,33.5343 C36.1815797,32.8194527 36.3661482,32.2642824 36.7352906,31.8687727 C37.1044331,31.4732629 37.5897798,31.2755109 38.1913453,31.2755109 C38.7167386,31.2755109 39.1434921,31.4307828 39.4716188,31.7413312 C39.6669322,31.9249259 39.8134151,32.1885952 39.9110719,32.5323469 L39.0526734,32.737425 C39.0018919,32.5147676 38.895936,32.3389881 38.7348023,32.2100812 C38.5736687,32.0811744 38.3778699,32.0167219 38.1474,32.0167219 C37.829039,32.0167219 37.5707408,32.1309785 37.3724977,32.3594953 C37.1742545,32.5880121 37.0751344,32.9581256 37.0751344,33.4698469 C37.0751344,34.0128183 37.1727896,34.3995332 37.3681031,34.6300031 C37.5634166,34.860473 37.8173203,34.9757062 38.1298219,34.9757062 C38.3602918,34.9757062 38.558532,34.9024648 38.7245484,34.7559797 C38.8905649,34.6094946 39.0097043,34.3790281 39.0819703,34.0645734 Z" id="C" fill="#000000"></path>
                    <polygon id="H" fill="#000000" points="54.2597531 35.643675 54.2597531 31.3487531 55.1269406 31.3487531 55.1269406 33.0391828 56.8261594 33.0391828 56.8261594 31.3487531 57.6933469 31.3487531 57.6933469 35.643675 56.8261594 35.643675 56.8261594 33.7657453 55.1269406 33.7657453 55.1269406 35.643675"></polygon>
                    <polygon id="I" fill="#000000" points="72.1533563 35.643675 72.1533563 31.3487531 73.0205438 31.3487531 73.0205438 35.643675"></polygon>
                    <polygon id="T" fill="#000000" points="88.4037203 35.643675 88.4037203 32.0753156 87.1293063 32.0753156 87.1293063 31.3487531 90.5423922 31.3487531 90.5423922 32.0753156 89.2709078 32.0753156 89.2709078 35.643675"></polygon>
                    <polygon id="E" fill="#000000" points="104.692223 35.643675 104.692223 31.3487531 107.876794 31.3487531 107.876794 32.0753156 105.559411 32.0753156 105.559411 33.0274641 107.715661 33.0274641 107.715661 33.7510969 105.559411 33.7510969 105.559411 34.9200422 107.958825 34.9200422 107.958825 35.643675"></polygon>
                    <path d="M125.03207,34.0645734 L125.872891,34.331175 C125.743984,34.7999273 125.52963,35.1480684 125.229824,35.3756086 C124.930018,35.6031488 124.549651,35.7169172 124.088711,35.7169172 C123.518396,35.7169172 123.04965,35.5220949 122.682461,35.1324445 C122.315272,34.7427941 122.13168,34.2100846 122.13168,33.5343 C122.13168,32.8194527 122.316248,32.2642824 122.685391,31.8687727 C123.054533,31.4732629 123.53988,31.2755109 124.141445,31.2755109 C124.666839,31.2755109 125.093592,31.4307828 125.421719,31.7413312 C125.617032,31.9249259 125.763515,32.1885952 125.861172,32.5323469 L125.002773,32.737425 C124.951992,32.5147676 124.846036,32.3389881 124.684902,32.2100812 C124.523769,32.0811744 124.32797,32.0167219 124.0975,32.0167219 C123.779139,32.0167219 123.520841,32.1309785 123.322598,32.3594953 C123.124354,32.5880121 123.025234,32.9581256 123.025234,33.4698469 C123.025234,34.0128183 123.12289,34.3995332 123.318203,34.6300031 C123.513517,34.860473 123.76742,34.9757062 124.079922,34.9757062 C124.310392,34.9757062 124.508632,34.9024648 124.674648,34.7559797 C124.840665,34.6094946 124.959804,34.3790281 125.03207,34.0645734 Z" id="C" fill="#000000"></path>
                    <polygon id="T" fill="#000000" points="141.11362 35.643675 141.11362 32.0753156 139.839206 32.0753156 139.839206 31.3487531 143.252292 31.3487531 143.252292 32.0753156 141.980808 32.0753156 141.980808 35.643675"></polygon>
                    <path d="M157.182397,34.2462141 L158.026147,34.1641828 C158.076928,34.4473874 158.179955,34.6553931 158.335229,34.7882062 C158.490503,34.9210194 158.699974,34.987425 158.963647,34.987425 C159.242945,34.987425 159.453392,34.9283436 159.594995,34.8101789 C159.736597,34.6920143 159.807397,34.553832 159.807397,34.3956281 C159.807397,34.2940651 159.777612,34.2076402 159.718041,34.1363508 C159.658471,34.0650614 159.554468,34.0030503 159.40603,33.9503156 C159.304467,33.9151592 159.073024,33.8526598 158.711694,33.7628156 C158.246848,33.6475807 157.920679,33.5059805 157.733178,33.3380109 C157.469505,33.1016816 157.33767,32.8135986 157.33767,32.4737531 C157.33767,32.255002 157.399681,32.0504142 157.523705,31.8599836 C157.64773,31.669553 157.826439,31.5245349 158.059838,31.424925 C158.293238,31.3253151 158.574973,31.2755109 158.905053,31.2755109 C159.444118,31.2755109 159.849876,31.3936738 160.122338,31.6300031 C160.394801,31.8663324 160.537866,32.181759 160.551537,32.5762922 L159.68435,32.6143781 C159.64724,32.3936739 159.567651,32.2349841 159.44558,32.1383039 C159.32351,32.0416237 159.140406,31.9932844 158.896264,31.9932844 C158.64431,31.9932844 158.447046,32.0450417 158.304467,32.1485578 C158.21267,32.2149644 158.166772,32.3038307 158.166772,32.4151594 C158.166772,32.5167224 158.20974,32.6036356 158.295678,32.6759016 C158.405054,32.7676989 158.670676,32.8634011 159.092553,32.9630109 C159.51443,33.0626208 159.826439,33.1656471 160.028588,33.272093 C160.230738,33.3785388 160.388939,33.5240452 160.503198,33.7086164 C160.617456,33.8931876 160.674584,34.1212127 160.674584,34.3926984 C160.674584,34.6387934 160.606226,34.8692599 160.469506,35.0841047 C160.332787,35.2989495 160.139429,35.4586159 159.889428,35.5631086 C159.639427,35.6676013 159.327907,35.7198469 158.954858,35.7198469 C158.411886,35.7198469 157.994898,35.5943598 157.703881,35.343382 C157.412864,35.0924042 157.239038,34.7266852 157.182397,34.2462141 Z" id="S" fill="#000000"></path>
                </g>
                <polygon id="Stroke-9" stroke="#151515" stroke-width="0.5669" points="0.6857 0.1378 188.1859 0.1378 188.1859 36.1378 0.6857 36.1378"></polygon>
            </g>
        </g>
    </g>
</svg>